<?xml version="1.0" encoding="utf-8"?>
<!-- Generator: Adobe Illustrator 24.3.0, SVG Export Plug-In . SVG Version: 6.00 Build 0)  -->
<svg version="1.1" id="Layer_1" xmlns="http://www.w3.org/2000/svg" xmlns:xlink="http://www.w3.org/1999/xlink" x="0px" y="0px"
     viewBox="0 0 80 80" style="enable-background:new 0 0 530.9 81.2;" xml:space="preserve">
<style type="text/css">
	.st0{fill-rule:evenodd;clip-rule:evenodd;}
	.st1{fill:none;}
	.st2{fill:#fb0;}
	.st3{fill:#FFFFFF;}
</style>
    <g>
	<path class="st1" d="M81.2,40.6C81.2,63,63,81.2,40.6,81.2S0,63,0,40.6S18.2,0,40.6,0S81.2,18.2,81.2,40.6"/>
        <path class="st1" d="M81.2,40.6C81.2,63,63,81.2,40.6,81.2S0,63,0,40.6S18.2,0,40.6,0S81.2,18.2,81.2,40.6"/>
        <g>
		<path class="st2" d="M81.2,40.6C81.2,18.2,63,0,40.6,0S0,18.2,0,40.6c0,2.9,0.3,5.8,0.9,8.5h79.4C80.9,46.4,81.2,43.5,81.2,40.6z"
        />
            <path class="st2" d="M40.6,81.2c10.2,0,19.5-3.8,26.6-10H14C21.1,77.4,30.4,81.2,40.6,81.2z"/>
            <path class="st2" d="M2.7,55.1c0.8,2.1,1.8,4.2,2.9,6.1c15.4,0,54.5,0,69.9,0c1.1-1.9,2.1-4,2.9-6.1H2.7z"/>
            <path class="st3" d="M80.3,49.1H0.9c0.4,2.1,1,4.1,1.8,6h75.8C79.3,53.2,79.9,51.2,80.3,49.1z"/>
            <path class="st3" d="M14,71.2h53.2c3.3-2.9,6.1-6.2,8.4-10c-15.4,0-54.5,0-69.9,0C7.9,65,10.7,68.4,14,71.2z"/>
	</g>
        <path d="M64.3,29.1v-2.7h8.8v6.4c0,2.5-0.9,4.6-2.6,6.4c-1.7,1.8-3.9,2.6-6.4,2.6H48.7c-1,0-1.9,0.4-2.6,1.1
		c-0.7,0.7-1.1,1.6-1.1,2.7v3.5h-8.2v-3.5c0-1-0.4-1.9-1.1-2.7c-0.7-0.7-1.6-1.1-2.7-1.1H17c-2.5,0-4.6-0.9-6.3-2.6
		c-1.7-1.8-2.6-3.9-2.6-6.3v-6.3H17v2.6c0,0.8,0.3,1.5,0.8,2s1.2,0.8,2,0.8h12.8c1.9,0,3.6,0.5,5.2,1.5c1.5,1,2.6,2.3,3.3,3.9
		c0.6-1.6,1.7-2.9,3.2-3.9s3.3-1.5,5.2-1.5h12.3c0.8,0,1.5-0.3,2-0.8C64,30.5,64.3,29.8,64.3,29.1z"/>
        <path class="st1" d="M81.2,40.6C81.2,63,63,81.2,40.6,81.2S0,63,0,40.6S18.2,0,40.6,0S81.2,18.2,81.2,40.6"/>
</g>
</svg>
